<?xml version="1.0" encoding="UTF-8"?>
<svg xmlns="http://www.w3.org/2000/svg" xmlns:xlink="http://www.w3.org/1999/xlink" width="50px" height="50px" viewBox="0 0 50 50" version="1.1">
<g id="surface1">
<path style=" stroke:none;fill-rule:nonzero;fill:rgb(18.431373%,8.235294%,38.039216%);fill-opacity:1;" d="M 23.101562 2.308594 C 21.433594 2.445312 19.164062 3.011719 17.660156 3.65625 C 15.898438 4.410156 14.179688 5.71875 12.746094 7.40625 C 12.464844 7.734375 12.230469 7.996094 12.21875 7.988281 C 12.214844 7.980469 12.230469 7.703125 12.253906 7.375 C 12.308594 6.714844 12.253906 5.949219 12.121094 5.488281 C 11.898438 4.746094 11.398438 4.128906 10.761719 3.808594 C 10.394531 3.628906 10.359375 3.625 9.855469 3.625 C 9.363281 3.625 9.300781 3.636719 8.988281 3.785156 C 8.125 4.195312 7.394531 4.914062 6.953125 5.785156 C 6.796875 6.109375 6.550781 6.878906 6.550781 7.074219 C 6.550781 7.183594 6.539062 7.183594 6.015625 7.183594 C 4.488281 7.171875 3.441406 8.101562 3.65625 9.269531 C 3.839844 10.300781 4.863281 11.210938 6.414062 11.726562 C 7.144531 11.964844 7.734375 12.050781 8.890625 12.085938 C 9.605469 12.105469 9.898438 12.128906 9.898438 12.175781 C 9.898438 12.203125 9.828125 12.429688 9.75 12.679688 C 9.398438 13.699219 9.078125 15.300781 8.945312 16.726562 C 8.871094 17.515625 8.871094 19.203125 8.945312 20.050781 C 9.054688 21.324219 9.339844 22.765625 9.671875 23.761719 L 9.835938 24.246094 L 9.664062 24.410156 C 9.433594 24.636719 9.125 25.265625 9.023438 25.730469 C 8.90625 26.246094 8.945312 27.40625 9.089844 27.960938 C 9.355469 28.933594 9.953125 29.945312 10.496094 30.316406 L 10.613281 30.394531 L 10.359375 30.65625 C 9.953125 31.066406 9.550781 31.933594 9.550781 32.390625 C 9.550781 32.546875 9.539062 32.558594 9.433594 32.519531 C 9.375 32.5 9.179688 32.480469 9 32.480469 C 8.726562 32.480469 8.625 32.503906 8.355469 32.648438 C 7.613281 33.050781 6.996094 33.914062 6.824219 34.800781 C 6.808594 34.890625 6.726562 34.964844 6.515625 35.074219 C 6.160156 35.253906 5.675781 35.730469 5.464844 36.101562 C 5.375 36.25 5.246094 36.578125 5.171875 36.824219 C 5.050781 37.214844 5.035156 37.363281 5.03125 37.949219 C 5.03125 38.53125 5.046875 38.664062 5.140625 38.894531 L 5.246094 39.164062 L 5.023438 39.476562 L 4.804688 39.785156 L 4.464844 39.785156 C 3.476562 39.785156 2.546875 40.40625 2.074219 41.375 C 1.695312 42.164062 1.730469 43.175781 2.179688 44.089844 C 2.351562 44.441406 2.851562 45.105469 3.039062 45.238281 C 3.253906 45.394531 3.34375 45.375 3.183594 45.210938 C 3.078125 45.101562 2.949219 44.726562 2.949219 44.519531 C 2.949219 44.515625 3.121094 44.425781 3.324219 44.328125 C 3.988281 44.003906 4.785156 43.285156 5.226562 42.601562 C 5.515625 42.15625 5.640625 41.898438 5.828125 41.375 C 5.921875 41.125 6.015625 40.929688 6.039062 40.933594 C 6.070312 40.941406 6.214844 40.816406 6.371094 40.648438 C 6.589844 40.410156 6.675781 40.351562 6.800781 40.351562 C 7.03125 40.351562 7.519531 40.171875 7.875 39.953125 L 8.191406 39.761719 L 8.28125 39.996094 C 8.414062 40.355469 8.746094 41 8.960938 41.316406 C 9.128906 41.570312 9.144531 41.605469 9.066406 41.628906 C 8.378906 41.84375 7.65625 42.296875 7.054688 42.875 C 6.445312 43.453125 6.054688 43.984375 5.726562 44.671875 C 5.449219 45.238281 5.351562 45.589844 5.351562 45.980469 C 5.351562 46.164062 5.363281 46.203125 5.433594 46.191406 C 5.496094 46.179688 5.558594 46.039062 5.648438 45.726562 C 5.71875 45.476562 5.90625 45.023438 6.058594 44.726562 C 6.675781 43.511719 7.53125 42.640625 8.675781 42.058594 C 9.28125 41.753906 9.261719 41.753906 9.476562 42.054688 C 9.574219 42.195312 9.671875 42.335938 9.679688 42.371094 C 9.695312 42.410156 9.574219 42.484375 9.359375 42.570312 C 9.171875 42.640625 8.921875 42.785156 8.804688 42.886719 C 8.574219 43.078125 8.558594 43.171875 8.785156 43.011719 C 9.226562 42.695312 10.269531 42.558594 10.96875 42.71875 C 12.105469 42.984375 12.90625 43.875 13.070312 45.050781 L 13.105469 45.273438 L 13.003906 45.09375 C 12.859375 44.835938 12.445312 44.480469 12.078125 44.304688 C 11.261719 43.921875 10.304688 43.855469 9.589844 44.136719 C 9.386719 44.214844 9.324219 44.328125 9.511719 44.285156 C 10.058594 44.144531 11.050781 44.214844 11.664062 44.433594 C 12.5 44.730469 12.898438 45.144531 13.050781 45.859375 C 13.113281 46.179688 13.21875 46.246094 13.285156 46.011719 C 13.351562 45.785156 13.320312 44.996094 13.230469 44.648438 C 13.035156 43.878906 12.449219 43.074219 11.851562 42.753906 C 11.445312 42.539062 10.871094 42.398438 10.378906 42.398438 L 9.976562 42.398438 L 9.488281 41.609375 C 8.496094 39.996094 8.230469 39.15625 8.234375 37.601562 C 8.234375 37 8.261719 36.710938 8.34375 36.316406 C 8.625 34.976562 9.199219 33.914062 10.195312 32.886719 C 11.019531 32.035156 11.925781 31.480469 13.175781 31.074219 C 14.195312 30.738281 14.644531 30.675781 15.898438 30.675781 C 16.898438 30.679688 17.015625 30.691406 17.574219 30.820312 C 18.875 31.125 19.910156 31.640625 20.839844 32.445312 C 21.535156 33.054688 22.914062 34.523438 23.21875 34.984375 C 23.273438 35.074219 23.34375 35.148438 23.363281 35.148438 C 23.386719 35.148438 23.578125 35.03125 23.796875 34.878906 C 25.261719 33.878906 26.933594 33.226562 28.75 32.953125 C 30.296875 32.726562 31.359375 32.703125 32.84375 32.878906 C 34.429688 33.066406 35.894531 33.535156 36.800781 34.148438 C 37.425781 34.574219 37.984375 35.25 38.351562 36.011719 C 38.585938 36.5 38.90625 37.714844 39.003906 38.476562 C 39.136719 39.519531 39.003906 40.996094 38.699219 41.941406 C 38.585938 42.285156 38.15625 43.199219 38.023438 43.371094 C 37.960938 43.453125 37.945312 43.460938 37.863281 43.390625 C 37.714844 43.265625 37.25 43.101562 36.894531 43.046875 C 35.953125 42.898438 34.585938 43.316406 33.726562 44.003906 C 32.839844 44.714844 32.816406 45.25 33.664062 45.25 L 34.019531 45.25 L 33.835938 45.421875 C 33.648438 45.585938 33.453125 45.945312 33.449219 46.109375 C 33.449219 46.171875 33.488281 46.199219 33.566406 46.199219 C 33.65625 46.199219 33.710938 46.144531 33.800781 45.945312 C 33.863281 45.804688 34 45.625 34.09375 45.539062 C 34.398438 45.273438 34.609375 45.210938 35.363281 45.171875 C 35.738281 45.15625 36.050781 45.121094 36.050781 45.101562 C 36.050781 45.011719 35.570312 44.976562 34.523438 44.984375 C 33.90625 44.996094 33.394531 44.980469 33.351562 44.949219 C 33.160156 44.828125 33.941406 44.113281 34.625 43.78125 C 35.824219 43.199219 37.003906 43.175781 37.824219 43.726562 C 38.359375 44.078125 38.730469 44.585938 39.15625 45.550781 C 39.378906 46.070312 39.476562 46.183594 39.585938 46.089844 C 39.691406 46.003906 39.628906 45.765625 39.375 45.21875 C 39.101562 44.628906 38.855469 44.261719 38.453125 43.835938 L 38.128906 43.496094 L 38.21875 43.359375 C 38.265625 43.285156 38.425781 42.984375 38.570312 42.695312 L 38.835938 42.160156 L 38.921875 42.464844 C 39.046875 42.910156 39.246094 43.285156 39.519531 43.585938 C 39.808594 43.90625 40.074219 44.070312 40.46875 44.171875 C 40.628906 44.214844 40.769531 44.253906 40.769531 44.261719 C 40.773438 44.269531 40.863281 44.410156 40.976562 44.570312 C 41.15625 44.839844 41.175781 44.894531 41.160156 45.144531 C 41.121094 45.925781 41.800781 47.320312 42.539062 47.984375 C 42.671875 48.101562 42.90625 48.246094 43.066406 48.308594 C 43.324219 48.414062 43.351562 48.433594 43.351562 48.574219 C 43.351562 48.660156 43.308594 48.808594 43.253906 48.914062 C 43.164062 49.089844 43.164062 49.09375 43.253906 49.046875 C 43.445312 48.945312 44.035156 48.316406 44.210938 48.023438 C 44.503906 47.53125 44.574219 47.253906 44.574219 46.601562 C 44.574219 45.914062 44.496094 45.636719 44.171875 45.140625 C 43.808594 44.601562 43.144531 44.148438 42.703125 44.148438 C 42.585938 44.148438 42.546875 44.105469 42.378906 43.785156 L 42.191406 43.414062 L 42.285156 43.21875 C 42.464844 42.859375 42.523438 42.546875 42.523438 41.949219 C 42.523438 41.480469 42.5 41.316406 42.410156 41.039062 C 42.253906 40.589844 41.980469 40.179688 41.609375 39.84375 C 41.34375 39.605469 41.300781 39.539062 41.300781 39.394531 C 41.296875 38.839844 41.003906 38.101562 40.613281 37.65625 C 40.378906 37.390625 39.921875 37.046875 39.628906 36.925781 C 39.46875 36.859375 39.464844 36.839844 39.429688 36.515625 C 39.414062 36.328125 39.386719 36.121094 39.375 36.050781 C 39.351562 35.933594 39.375 35.914062 39.636719 35.800781 C 40.089844 35.609375 40.90625 35.039062 41.238281 34.679688 C 42.011719 33.855469 42.46875 32.855469 42.574219 31.765625 C 42.625 31.300781 42.53125 30.644531 42.34375 30.121094 L 42.195312 29.695312 L 42.539062 29.261719 C 44.28125 27.070312 45.691406 23.855469 46.148438 21.050781 C 46.453125 19.171875 46.386719 16.824219 45.96875 14.964844 C 45.566406 13.140625 44.699219 11.195312 43.609375 9.628906 C 41.585938 6.738281 38.34375 4.316406 35.078125 3.246094 C 33.445312 2.710938 31.835938 2.476562 30.066406 2.515625 C 29.054688 2.535156 27.941406 2.675781 27.683594 2.804688 C 27.625 2.839844 27.464844 2.808594 27.128906 2.703125 C 25.894531 2.308594 24.609375 2.179688 23.101562 2.308594 Z M 10.605469 3.988281 C 11.199219 4.273438 11.675781 4.894531 11.890625 5.660156 C 12.023438 6.148438 12.003906 7.648438 11.855469 8.59375 C 11.691406 9.648438 11.445312 10.558594 11.136719 11.285156 L 10.859375 11.925781 L 10.09375 11.941406 C 8.214844 11.980469 6.84375 11.75 5.78125 11.214844 C 5.199219 10.929688 4.941406 10.75 4.570312 10.378906 C 3.703125 9.511719 3.691406 8.453125 4.539062 7.851562 C 4.949219 7.554688 5.375 7.429688 5.976562 7.425781 L 6.46875 7.425781 L 6.515625 7.636719 C 6.539062 7.761719 6.59375 7.871094 6.648438 7.898438 C 6.734375 7.945312 6.738281 7.941406 6.664062 7.796875 C 6.570312 7.609375 6.605469 7.261719 6.78125 6.660156 C 7.140625 5.421875 8.121094 4.300781 9.203125 3.898438 C 9.613281 3.746094 10.171875 3.78125 10.605469 3.988281 Z M 17 4.390625 C 16.609375 4.695312 16.296875 5.03125 16.28125 5.148438 C 16.269531 5.21875 16.253906 5.296875 16.246094 5.324219 C 16.226562 5.398438 16.300781 5.601562 16.355469 5.605469 C 16.378906 5.609375 16.421875 5.613281 16.445312 5.621094 C 16.585938 5.640625 16.488281 5.746094 15.839844 6.335938 C 13.984375 8.019531 12.488281 9.804688 11.46875 11.558594 C 11.226562 11.980469 11.105469 12.015625 11.285156 11.609375 C 11.628906 10.828125 11.878906 9.96875 12.078125 8.855469 C 12.140625 8.535156 12.183594 8.378906 12.199219 8.449219 C 12.226562 8.550781 12.273438 8.503906 12.621094 8.074219 C 13.546875 6.929688 14.34375 6.140625 15.375 5.375 C 15.855469 5.015625 17.074219 4.246094 17.148438 4.25 C 17.164062 4.253906 17.09375 4.316406 17 4.390625 Z M 42.65625 9.035156 C 44.203125 10.875 45.34375 13.371094 45.75 15.820312 C 45.859375 16.488281 45.980469 18.121094 45.933594 18.304688 C 45.914062 18.375 45.84375 18.5 45.773438 18.578125 C 45.34375 19.070312 45.28125 19.089844 45.023438 18.773438 C 44.890625 18.605469 44.851562 18.496094 44.78125 18.050781 C 44.574219 16.820312 44.214844 15.453125 43.816406 14.363281 C 43.609375 13.804688 43.5 13.644531 43.5 13.90625 C 43.5 14.03125 43.328125 14.199219 43.199219 14.199219 C 42.933594 14.199219 42.503906 13.550781 42.230469 12.726562 C 41.933594 11.851562 42.023438 11.394531 42.453125 11.546875 L 42.605469 11.59375 L 42.386719 11.183594 C 42.265625 10.960938 42 10.476562 41.800781 10.105469 L 41.429688 9.433594 L 41.65625 9.230469 C 41.78125 9.113281 41.914062 8.949219 41.953125 8.859375 C 41.996094 8.773438 42.039062 8.699219 42.054688 8.699219 C 42.074219 8.699219 42.089844 8.671875 42.085938 8.636719 C 42.085938 8.605469 42.089844 8.53125 42.09375 8.476562 C 42.101562 8.375 42.105469 8.375 42.191406 8.480469 C 42.234375 8.539062 42.445312 8.789062 42.65625 9.035156 Z M 23.425781 9.738281 C 23.925781 9.878906 24.253906 10.019531 24.621094 10.25 C 24.949219 10.460938 25.453125 10.960938 25.683594 11.304688 C 25.753906 11.410156 25.828125 11.5 25.851562 11.5 C 25.933594 11.5 26.15625 11.273438 26.523438 10.816406 C 26.738281 10.546875 26.933594 10.304688 26.953125 10.285156 C 26.996094 10.234375 27.414062 10.851562 27.523438 11.121094 L 27.601562 11.300781 L 28.179688 11.300781 C 28.824219 11.300781 29.558594 11.394531 30.324219 11.574219 C 32.023438 11.976562 33.566406 12.898438 34.78125 14.253906 C 35.898438 15.496094 36.636719 16.746094 36.996094 18.015625 C 37.539062 19.921875 37.625 21.613281 37.273438 23.679688 C 37.089844 24.78125 36.761719 26.015625 36.621094 26.125 C 36.585938 26.148438 36.445312 26.488281 36.300781 26.875 C 35.96875 27.769531 35.230469 29.285156 34.683594 30.160156 C 34.449219 30.539062 34.28125 30.851562 34.304688 30.851562 C 34.421875 30.851562 34.996094 30.628906 35.371094 30.441406 C 35.863281 30.191406 36.328125 29.894531 36.890625 29.46875 C 37.371094 29.105469 38.359375 28.59375 38.851562 28.464844 C 39.050781 28.410156 39.359375 28.378906 39.648438 28.378906 C 40.085938 28.378906 40.15625 28.394531 40.488281 28.546875 C 41.195312 28.875 41.828125 29.730469 42.03125 30.628906 C 42.144531 31.15625 42.105469 32.078125 41.949219 32.574219 C 41.539062 33.863281 40.570312 34.910156 39.300781 35.429688 C 38.855469 35.613281 38.480469 35.710938 38.460938 35.648438 C 38.386719 35.433594 37.941406 34.886719 37.464844 34.410156 C 36.945312 33.898438 36.90625 33.851562 37.03125 33.851562 C 37.375 33.851562 37.90625 33.421875 38.105469 32.984375 C 38.371094 32.394531 38.046875 31.703125 37.503906 31.699219 L 37.324219 31.695312 L 37.550781 31.5 C 37.675781 31.390625 37.964844 31.203125 38.195312 31.089844 C 38.570312 30.894531 38.648438 30.875 38.96875 30.875 C 39.183594 30.875 39.386719 30.90625 39.476562 30.949219 C 39.644531 31.035156 39.945312 31.449219 39.984375 31.664062 C 40.019531 31.835938 40.105469 31.820312 40.15625 31.628906 C 40.226562 31.371094 40.109375 31.015625 39.890625 30.820312 C 39.328125 30.308594 38.300781 30.480469 37.515625 31.214844 C 37.234375 31.480469 36.894531 32.011719 36.960938 32.078125 C 36.976562 32.089844 37.050781 32.070312 37.128906 32.023438 C 37.339844 31.914062 37.519531 31.933594 37.695312 32.078125 C 37.828125 32.195312 37.851562 32.238281 37.851562 32.464844 C 37.851562 32.800781 37.691406 33.066406 37.296875 33.398438 C 36.796875 33.816406 36.761719 33.824219 36.445312 33.648438 C 36.296875 33.570312 35.976562 33.425781 35.726562 33.324219 C 33.015625 32.28125 29.074219 32.296875 26.339844 33.363281 C 25.53125 33.683594 24.734375 34.09375 24.09375 34.523438 C 23.789062 34.730469 23.523438 34.898438 23.511719 34.898438 C 23.488281 34.894531 23.308594 34.691406 23.113281 34.433594 C 21.910156 32.90625 20.644531 31.78125 19.476562 31.199219 C 18.34375 30.640625 17.421875 30.410156 16.125 30.363281 C 14.65625 30.320312 13.421875 30.558594 12.15625 31.136719 C 11.949219 31.226562 11.765625 31.285156 11.746094 31.265625 C 11.671875 31.179688 11.449219 30.488281 11.378906 30.101562 C 11.289062 29.636719 11.273438 28.679688 11.351562 28.21875 C 11.375 28.054688 11.523438 27.46875 11.679688 26.921875 C 11.886719 26.175781 11.964844 25.808594 11.984375 25.460938 L 12.015625 24.996094 L 12.25 25.414062 C 12.378906 25.648438 12.578125 25.964844 12.691406 26.121094 L 12.890625 26.40625 L 12.921875 26.214844 C 12.941406 26.109375 12.941406 25.371094 12.925781 24.574219 C 12.910156 23.753906 12.921875 22.808594 12.949219 22.398438 C 13.105469 20.308594 13.515625 18.113281 14.074219 16.410156 C 14.320312 15.664062 14.554688 15.246094 15.414062 14.035156 C 17.179688 11.546875 19.238281 10 21.238281 9.675781 C 21.839844 9.574219 22.953125 9.609375 23.425781 9.738281 Z M 11.199219 11.96875 C 11.199219 11.980469 11.140625 12.09375 11.070312 12.21875 C 10.96875 12.398438 10.921875 12.445312 10.855469 12.421875 C 10.671875 12.339844 10.460938 12.34375 10.320312 12.433594 C 10.183594 12.519531 10.179688 12.519531 10.214844 12.433594 C 10.234375 12.378906 10.265625 12.289062 10.28125 12.226562 C 10.304688 12.125 10.351562 12.101562 10.539062 12.074219 C 10.671875 12.058594 10.855469 12.023438 10.949219 12 C 11.171875 11.949219 11.199219 11.945312 11.199219 11.96875 Z M 40.574219 12.410156 C 40.878906 12.679688 41.066406 13.636719 40.851562 13.851562 C 40.714844 13.984375 40.636719 13.976562 40.429688 13.796875 C 40.101562 13.503906 39.910156 12.640625 40.125 12.398438 C 40.246094 12.269531 40.414062 12.273438 40.574219 12.410156 Z M 38.773438 13.148438 C 38.828125 13.210938 38.871094 13.335938 38.871094 13.464844 C 38.875 13.65625 38.863281 13.675781 38.746094 13.691406 C 38.648438 13.699219 38.578125 13.671875 38.503906 13.570312 C 38.253906 13.253906 38.511719 12.859375 38.773438 13.148438 Z M 11.289062 24.34375 C 11.660156 24.535156 11.671875 24.574219 11.609375 25.234375 C 11.566406 25.703125 11.5 26.011719 11.28125 26.726562 C 10.824219 28.230469 10.824219 28.226562 10.824219 29.183594 L 10.824219 30.046875 L 10.683594 29.910156 C 10.445312 29.683594 10.101562 29.195312 9.910156 28.824219 C 9.496094 27.996094 9.300781 27.023438 9.394531 26.230469 C 9.503906 25.285156 9.910156 24.566406 10.46875 24.320312 C 10.695312 24.226562 11.074219 24.234375 11.289062 24.34375 Z M 8.023438 33.484375 C 7.671875 33.949219 7.300781 34.90625 7.300781 35.355469 C 7.300781 35.429688 7.285156 35.53125 7.269531 35.574219 C 7.210938 35.730469 7.148438 35.546875 7.148438 35.199219 C 7.148438 34.558594 7.394531 33.96875 7.875 33.460938 C 8.203125 33.101562 8.304688 33.121094 8.023438 33.484375 Z M 6.800781 35.308594 C 6.800781 35.339844 6.644531 35.523438 6.460938 35.71875 C 6.039062 36.15625 5.886719 36.410156 5.679688 37.035156 C 5.503906 37.546875 5.398438 37.679688 5.398438 37.390625 C 5.398438 36.96875 5.699219 36.226562 6.011719 35.871094 C 6.179688 35.675781 6.695312 35.25 6.765625 35.25 C 6.785156 35.25 6.800781 35.273438 6.800781 35.308594 Z M 40.660156 38.140625 C 40.839844 38.398438 41 38.855469 41 39.109375 C 41 39.363281 40.914062 39.351562 40.851562 39.085938 C 40.734375 38.644531 40.59375 38.265625 40.484375 38.101562 C 40.421875 38.003906 40.324219 37.855469 40.273438 37.773438 L 40.179688 37.625 L 40.34375 37.773438 C 40.433594 37.855469 40.574219 38.019531 40.660156 38.140625 Z M 5.621094 39.664062 C 5.769531 39.808594 5.894531 39.96875 5.90625 40.023438 C 5.914062 40.078125 6.015625 40.171875 6.136719 40.230469 L 6.351562 40.339844 L 6.195312 40.53125 C 6.109375 40.640625 6.035156 40.734375 6.023438 40.746094 C 6.015625 40.753906 5.769531 40.578125 5.480469 40.355469 L 4.953125 39.949219 L 5.140625 39.675781 C 5.238281 39.523438 5.328125 39.40625 5.339844 39.398438 C 5.34375 39.398438 5.476562 39.519531 5.621094 39.664062 Z M 42.050781 40.726562 C 42.195312 41.015625 42.316406 41.484375 42.269531 41.558594 C 42.183594 41.691406 42.09375 41.550781 41.929688 41.035156 C 41.824219 40.714844 41.671875 40.351562 41.566406 40.195312 L 41.386719 39.925781 L 41.644531 40.175781 C 41.789062 40.316406 41.96875 40.558594 42.050781 40.726562 Z M 5.105469 40.355469 C 5.320312 40.523438 5.484375 40.679688 5.46875 40.703125 C 5.453125 40.730469 5.34375 40.75 5.226562 40.75 C 4.894531 40.75 4.511719 40.84375 4.183594 41.011719 C 3.609375 41.296875 3.015625 42.046875 2.804688 42.738281 C 2.675781 43.171875 2.585938 43.820312 2.613281 44.113281 L 2.640625 44.375 L 2.46875 44.023438 C 2.125 43.308594 2.003906 42.433594 2.179688 41.84375 C 2.433594 40.96875 3.246094 40.261719 4.164062 40.105469 C 4.65625 40.023438 4.679688 40.03125 5.105469 40.355469 Z M 42.171875 43.933594 C 42.214844 44.066406 42.234375 44.183594 42.214844 44.203125 C 42.191406 44.226562 41.996094 44.339844 41.78125 44.453125 L 41.386719 44.664062 L 41.246094 44.496094 C 41.09375 44.316406 41.085938 44.253906 41.203125 44.199219 C 41.59375 44.015625 41.761719 43.921875 41.875 43.800781 C 41.953125 43.71875 42.03125 43.664062 42.054688 43.675781 C 42.074219 43.691406 42.125 43.804688 42.171875 43.933594 Z M 43.085938 44.523438 C 43.425781 44.695312 43.90625 45.160156 44.070312 45.484375 C 44.335938 46.011719 44.414062 46.628906 44.296875 47.210938 C 44.234375 47.5 43.921875 48.128906 43.710938 48.390625 L 43.574219 48.554688 L 43.578125 48.089844 C 43.585938 47.835938 43.605469 47.390625 43.625 47.101562 C 43.671875 46.488281 43.59375 46.140625 43.34375 45.738281 C 43.148438 45.433594 42.585938 44.910156 42.289062 44.75 L 42.054688 44.625 L 42.203125 44.46875 C 42.351562 44.320312 42.371094 44.316406 42.589844 44.359375 C 42.71875 44.378906 42.941406 44.460938 43.085938 44.523438 Z M 43.085938 44.523438 "/>
<path style=" stroke:none;fill-rule:nonzero;fill:rgb(18.431373%,8.235294%,38.039216%);fill-opacity:1;" d="M 17.671875 17.523438 C 17.28125 17.609375 16.804688 17.804688 16.503906 17.996094 C 16.164062 18.214844 15.890625 18.515625 15.910156 18.644531 C 15.925781 18.75 15.945312 18.738281 16.265625 18.53125 C 16.660156 18.269531 17.265625 18.023438 17.773438 17.914062 C 18.261719 17.808594 19.035156 17.851562 19.394531 17.996094 C 19.769531 18.144531 20.476562 18.640625 20.851562 19.011719 C 21.089844 19.253906 21.15625 19.296875 21.125 19.199219 C 20.996094 18.769531 20.324219 18.011719 19.859375 17.761719 C 19.699219 17.675781 19.433594 17.570312 19.273438 17.523438 C 18.914062 17.433594 18.09375 17.433594 17.671875 17.523438 Z M 17.671875 17.523438 "/>
<path style=" stroke:none;fill-rule:nonzero;fill:rgb(18.431373%,8.235294%,38.039216%);fill-opacity:1;" d="M 31.054688 19.351562 C 30.226562 19.523438 29.5 19.949219 29.5 20.261719 C 29.5 20.355469 29.515625 20.351562 29.765625 20.210938 C 30.351562 19.886719 31.089844 19.71875 31.816406 19.765625 C 32.378906 19.800781 32.710938 19.875 33.050781 20.050781 C 33.355469 20.203125 34.050781 20.753906 34.289062 21.03125 C 34.398438 21.148438 34.503906 21.25 34.523438 21.25 C 34.578125 21.25 34.496094 20.941406 34.375 20.699219 C 34.089844 20.140625 33.488281 19.660156 32.824219 19.449219 C 32.429688 19.324219 31.429688 19.269531 31.054688 19.351562 Z M 31.054688 19.351562 "/>
<path style=" stroke:none;fill-rule:nonzero;fill:rgb(18.431373%,8.235294%,38.039216%);fill-opacity:1;" d="M 17.75 21.566406 C 17.75 21.578125 17.898438 21.636719 18.089844 21.695312 C 18.625 21.855469 19.023438 22.121094 19.574219 22.675781 C 19.851562 22.949219 20.15625 23.28125 20.246094 23.410156 C 20.339844 23.546875 20.425781 23.640625 20.441406 23.628906 C 20.449219 23.613281 20.371094 23.429688 20.265625 23.214844 C 19.851562 22.363281 18.90625 21.648438 18.089844 21.570312 C 17.898438 21.550781 17.75 21.550781 17.75 21.566406 Z M 17.75 21.566406 "/>
<path style=" stroke:none;fill-rule:nonzero;fill:rgb(18.431373%,8.235294%,38.039216%);fill-opacity:1;" d="M 15.726562 22.070312 C 15.273438 22.199219 15.035156 22.300781 14.789062 22.453125 C 14.660156 22.539062 14.550781 22.625 14.550781 22.644531 C 14.550781 22.660156 14.441406 22.828125 14.300781 23.019531 C 14.023438 23.394531 13.851562 23.871094 13.851562 24.230469 C 13.851562 24.496094 13.914062 24.511719 14.234375 24.320312 C 14.496094 24.171875 15.484375 23.839844 15.976562 23.746094 C 16.195312 23.699219 16.664062 23.675781 17.226562 23.675781 C 18.035156 23.675781 18.160156 23.683594 18.476562 23.789062 C 19.140625 24.015625 19.863281 24.511719 20.433594 25.136719 C 20.644531 25.363281 20.820312 25.546875 20.828125 25.539062 C 20.863281 25.5 20.539062 24.625 20.355469 24.265625 C 19.820312 23.234375 18.886719 22.488281 17.699219 22.148438 C 17.210938 22.003906 16.101562 21.964844 15.726562 22.070312 Z M 15.726562 22.070312 "/>
<path style=" stroke:none;fill-rule:nonzero;fill:rgb(18.431373%,8.235294%,38.039216%);fill-opacity:1;" d="M 30.824219 22.800781 C 30.070312 22.914062 28.96875 23.621094 28.691406 24.164062 C 28.558594 24.425781 28.601562 24.515625 28.746094 24.28125 C 29.050781 23.785156 29.855469 23.324219 30.925781 23.023438 C 31.878906 22.753906 31.875 22.761719 31.449219 22.761719 C 31.246094 22.761719 30.964844 22.78125 30.824219 22.800781 Z M 30.824219 22.800781 "/>
<path style=" stroke:none;fill-rule:nonzero;fill:rgb(18.431373%,8.235294%,38.039216%);fill-opacity:1;" d="M 31.515625 23.300781 C 30.046875 23.503906 28.78125 24.324219 28.210938 25.445312 C 27.980469 25.890625 27.996094 26.046875 28.238281 25.816406 C 28.558594 25.519531 29.464844 25.191406 30.394531 25.03125 C 31.300781 24.875 32.789062 24.941406 33.675781 25.175781 C 34.003906 25.265625 34.671875 25.570312 34.96875 25.773438 C 35.179688 25.921875 35.234375 25.914062 35.15625 25.761719 C 35.125 25.699219 35.101562 25.613281 35.101562 25.558594 C 35.101562 25.503906 35.019531 25.203125 34.921875 24.894531 C 34.753906 24.386719 34.714844 24.308594 34.480469 24.078125 C 33.988281 23.589844 33.238281 23.308594 32.324219 23.273438 C 32.050781 23.265625 31.683594 23.273438 31.515625 23.300781 Z M 31.515625 23.300781 "/>
<path style=" stroke:none;fill-rule:nonzero;fill:rgb(18.431373%,8.235294%,38.039216%);fill-opacity:1;" d="M 22.980469 25.804688 C 22.894531 25.875 22.851562 25.953125 22.851562 26.054688 C 22.851562 26.21875 22.886719 26.230469 23.085938 26.125 C 23.160156 26.085938 23.320312 26.023438 23.441406 26 C 23.675781 25.941406 23.699219 25.890625 23.539062 25.78125 C 23.386719 25.671875 23.140625 25.679688 22.980469 25.804688 Z M 22.980469 25.804688 "/>
<path style=" stroke:none;fill-rule:nonzero;fill:rgb(18.431373%,8.235294%,38.039216%);fill-opacity:1;" d="M 16.605469 26.378906 C 16.429688 26.601562 15.835938 28.550781 15.914062 28.628906 C 15.949219 28.664062 16.25 27.914062 16.53125 27.074219 C 16.679688 26.640625 16.800781 26.269531 16.800781 26.265625 C 16.800781 26.203125 16.691406 26.273438 16.605469 26.378906 Z M 16.605469 26.378906 "/>
<path style=" stroke:none;fill-rule:nonzero;fill:rgb(18.431373%,8.235294%,38.039216%);fill-opacity:1;" d="M 15.335938 26.761719 C 15.136719 27.179688 14.75 28.289062 14.75 28.429688 C 14.753906 28.484375 14.804688 28.425781 14.878906 28.28125 C 15.023438 28.011719 15.515625 26.753906 15.570312 26.535156 C 15.628906 26.28125 15.503906 26.398438 15.335938 26.761719 Z M 15.335938 26.761719 "/>
<path style=" stroke:none;fill-rule:nonzero;fill:rgb(18.431373%,8.235294%,38.039216%);fill-opacity:1;" d="M 14.378906 26.800781 C 14.296875 26.949219 13.949219 27.921875 13.949219 28.019531 C 13.949219 28.140625 14.054688 27.941406 14.265625 27.425781 C 14.535156 26.765625 14.570312 26.648438 14.515625 26.648438 C 14.488281 26.648438 14.429688 26.71875 14.378906 26.800781 Z M 14.378906 26.800781 "/>
<path style=" stroke:none;fill-rule:nonzero;fill:rgb(18.431373%,8.235294%,38.039216%);fill-opacity:1;" d="M 17.234375 27.308594 C 17.066406 27.753906 16.890625 28.351562 16.929688 28.351562 C 16.976562 28.351562 17.179688 27.886719 17.328125 27.429688 C 17.515625 26.890625 17.519531 26.851562 17.453125 26.851562 C 17.429688 26.851562 17.328125 27.058594 17.234375 27.308594 Z M 17.234375 27.308594 "/>
<path style=" stroke:none;fill-rule:nonzero;fill:rgb(18.431373%,8.235294%,38.039216%);fill-opacity:1;" d="M 31.730469 27.285156 C 31.605469 27.609375 31.480469 29.511719 31.59375 29.300781 C 31.644531 29.214844 31.734375 28.515625 31.773438 27.898438 C 31.789062 27.664062 31.816406 27.414062 31.828125 27.335938 C 31.859375 27.183594 31.78125 27.148438 31.730469 27.285156 Z M 31.730469 27.285156 "/>
<path style=" stroke:none;fill-rule:nonzero;fill:rgb(18.431373%,8.235294%,38.039216%);fill-opacity:1;" d="M 32.683594 27.324219 C 32.585938 27.570312 32.449219 28.394531 32.453125 28.746094 L 32.460938 29.125 L 32.53125 28.875 C 32.695312 28.273438 32.824219 26.984375 32.683594 27.324219 Z M 32.683594 27.324219 "/>
<path style=" stroke:none;fill-rule:nonzero;fill:rgb(18.431373%,8.235294%,38.039216%);fill-opacity:1;" d="M 18.136719 27.335938 C 18.09375 27.394531 17.894531 28.359375 17.914062 28.378906 C 17.925781 28.390625 17.980469 28.261719 18.039062 28.085938 C 18.179688 27.664062 18.246094 27.148438 18.136719 27.335938 Z M 18.136719 27.335938 "/>
<path style=" stroke:none;fill-rule:nonzero;fill:rgb(18.431373%,8.235294%,38.039216%);fill-opacity:1;" d="M 30.699219 27.410156 C 30.699219 27.421875 30.65625 27.640625 30.601562 27.898438 C 30.515625 28.316406 30.453125 29.410156 30.523438 29.34375 C 30.550781 29.320312 30.726562 28.179688 30.773438 27.710938 C 30.800781 27.5 30.796875 27.398438 30.753906 27.398438 C 30.726562 27.398438 30.699219 27.40625 30.699219 27.410156 Z M 30.699219 27.410156 "/>
<path style=" stroke:none;fill-rule:nonzero;fill:rgb(18.431373%,8.235294%,38.039216%);fill-opacity:1;" d="M 33.523438 27.734375 C 33.464844 27.875 33.433594 29.039062 33.496094 28.945312 C 33.539062 28.878906 33.648438 28.011719 33.648438 27.746094 C 33.648438 27.625 33.574219 27.621094 33.523438 27.734375 Z M 33.523438 27.734375 "/>
<path style=" stroke:none;fill-rule:nonzero;fill:rgb(18.431373%,8.235294%,38.039216%);fill-opacity:1;" d="M 34.5 28.195312 C 34.5 28.359375 34.523438 28.511719 34.550781 28.523438 C 34.578125 28.546875 34.601562 28.433594 34.601562 28.230469 C 34.601562 28.046875 34.578125 27.898438 34.550781 27.898438 C 34.519531 27.898438 34.5 28.03125 34.5 28.195312 Z M 34.5 28.195312 "/>
<path style=" stroke:none;fill-rule:nonzero;fill:rgb(18.431373%,8.235294%,38.039216%);fill-opacity:1;" d="M 29.660156 28.105469 C 29.636719 28.171875 29.59375 28.324219 29.574219 28.445312 C 29.519531 28.769531 29.628906 28.660156 29.699219 28.320312 C 29.761719 28.03125 29.734375 27.898438 29.660156 28.105469 Z M 29.660156 28.105469 "/>
<path style=" stroke:none;fill-rule:nonzero;fill:rgb(18.431373%,8.235294%,38.039216%);fill-opacity:1;" d="M 27.09375 28.828125 C 26.996094 28.898438 26.605469 29.070312 26.21875 29.203125 C 25.613281 29.425781 25.449219 29.464844 24.914062 29.515625 C 24.15625 29.585938 23.324219 29.511719 22.675781 29.324219 C 22.078125 29.148438 22.070312 29.160156 22.175781 29.855469 C 22.320312 30.800781 22.433594 31.148438 22.785156 31.640625 C 23.488281 32.628906 25.011719 33.039062 26.089844 32.523438 C 27.273438 31.964844 27.886719 30.503906 27.476562 29.199219 C 27.398438 28.980469 27.359375 28.773438 27.375 28.75 C 27.429688 28.660156 27.28125 28.703125 27.09375 28.828125 Z M 27.269531 29.230469 C 27.285156 29.359375 27.300781 29.585938 27.300781 29.730469 C 27.300781 30.023438 27.355469 29.988281 26.699219 30.101562 C 25.445312 30.320312 24.144531 31.050781 23.714844 31.785156 C 23.644531 31.90625 23.566406 32 23.535156 32 C 23.414062 32 22.898438 31.394531 22.734375 31.070312 C 22.570312 30.730469 22.335938 29.980469 22.273438 29.566406 L 22.238281 29.355469 L 22.511719 29.5 C 22.964844 29.738281 23.453125 29.820312 24.449219 29.820312 C 25.226562 29.816406 25.378906 29.800781 25.816406 29.683594 C 26.28125 29.558594 26.761719 29.335938 27.050781 29.101562 C 27.121094 29.046875 27.191406 29 27.203125 29 C 27.226562 29 27.25 29.105469 27.269531 29.230469 Z M 27.269531 30.535156 C 27.179688 31.039062 26.875 31.574219 26.488281 31.925781 C 25.820312 32.53125 24.96875 32.65625 24.066406 32.296875 C 23.921875 32.234375 23.800781 32.160156 23.800781 32.125 C 23.800781 32.019531 24.246094 31.558594 24.574219 31.324219 C 25.203125 30.871094 26.515625 30.390625 27.191406 30.355469 C 27.296875 30.351562 27.300781 30.363281 27.269531 30.535156 Z M 27.269531 30.535156 "/>
</g>
</svg>
